<svg xmlns="http://www.w3.org/2000/svg" version="1.1" xmlns:xlink="http://www.w3.org/1999/xlink" xmlns:svgjs="http://svgjs.com/svgjs" viewBox="0 0 140 140" width="140" height="140"><g transform="matrix(0.3783783783783784,0,0,0.3783783783783784,0,0)"><path d="M278.39,315.86A24.77,24.77,0,0,0,262,304.54v9.63a15.34,15.34,0,0,1,6.77,4.4" fill="#87898c" stroke="#45413c" stroke-linecap="round" stroke-linejoin="round" stroke-width="4"></path><path d="M285.64,290.64a4.67,4.67,0,0,1-3-8.22c19.52-16.7,12.3-43.46,12-44.59a4.67,4.67,0,0,1,9-2.55c.38,1.36,9.23,33.59-14.9,54.24A4.67,4.67,0,0,1,285.64,290.64Z" fill="#87898c" stroke="#45413c" stroke-linecap="round" stroke-linejoin="round" stroke-width="4"></path><path d="M286.17,298.51H223.91a8.69,8.69,0,0,1-8.68-8.69v-1.7a8.68,8.68,0,0,1,8.68-8.68h62.26Z" fill="#f0c2a1" stroke="#45413c" stroke-linecap="round" stroke-linejoin="round" stroke-width="4"></path><path d="M320,244.83H284.58a9.34,9.34,0,0,1-9.34-9.34V221.07a9.35,9.35,0,0,1,9.34-9.35H320Z" fill="#f0c2a1" stroke="#45413c" stroke-linecap="round" stroke-linejoin="round" stroke-width="4"></path><path d="M313.850 211.720 L328.590 211.720 L328.590 244.830 L313.850 244.830 Z" fill="#bf8256" stroke="#45413c" stroke-linecap="round" stroke-linejoin="round" stroke-width="4"></path><path d="M269.510 279.440 L305.850 279.440 L305.850 298.510 L269.510 298.510 Z" fill="#bf8256" stroke="#45413c" stroke-linecap="round" stroke-linejoin="round" stroke-width="4"></path><path d="M233.14,229.08c-12.6,0-20.88-2.81-29-5.56-9.32-3.16-18.12-6.15-35.71-4.87a9.93,9.93,0,1,1-1.45-19.8c21.62-1.58,33.27,2.38,43.54,5.87,11.41,3.88,20.42,6.94,44.09,1.87A9.92,9.92,0,0,1,258.79,226,122.35,122.35,0,0,1,233.14,229.08Z" fill="#e0e0e0" stroke="#45413c" stroke-linecap="round" stroke-linejoin="round" stroke-width="4"></path><path d="M325.49,121.66a79.42,79.42,0,1,0-81,86.77c-4.11,13.87-6.12,33.16-9.2,51.52H224a17.87,17.87,0,0,0-17.84,16.91l-1.12,20.52-5.36,1.34a10.07,10.07,0,0,0-7.48,11.84,9.92,9.92,0,0,0,9.68,7.77,10.08,10.08,0,0,0,2.42-.3l9.83-2.46a13.83,13.83,0,0,0,10.5-12.73l1.05-19.27a4,4,0,0,1,4-3.76h10.12l-1,17.57-5.35,1.34A10.07,10.07,0,0,0,226,310.56a9.92,9.92,0,0,0,9.68,7.77,10.08,10.08,0,0,0,2.42-.3l9.83-2.46a13.83,13.83,0,0,0,10.5-12.73l1.05-19.27a4,4,0,0,1,4-3.76h20.76A11.88,11.88,0,0,0,296,269.61c4.57-32.3-1.51-64-4.15-75.4A79.38,79.38,0,0,0,325.49,121.66Z" fill="#ffffff"></path><path d="M239.06,49.94A79.43,79.43,0,0,0,167.21,135L294,124.39s17,26.2,2.59,66.2h0A79.43,79.43,0,0,0,239.06,49.94Z" fill="#e0e0e0"></path><path d="M237.890 135.630 A37.100 37.100 0 1 0 312.090 135.630 A37.100 37.100 0 1 0 237.890 135.630 Z" fill="#e0e0e0"></path><path d="M215.31,145.11A37.14,37.14,0,0,0,169.52,109a79.58,79.58,0,0,0,17.06,72.23A37.11,37.11,0,0,0,215.31,145.11Z" fill="#e0e0e0"></path><path d="M325.49,121.66a79.42,79.42,0,1,0-81,86.77c-4.11,13.87-6.12,33.16-9.2,51.52H224a17.87,17.87,0,0,0-17.84,16.91l-1.12,20.52-5.36,1.34a10.07,10.07,0,0,0-7.48,11.84,9.92,9.92,0,0,0,9.68,7.77,10.08,10.08,0,0,0,2.42-.3l9.83-2.46a13.83,13.83,0,0,0,10.5-12.73l1.05-19.27a4,4,0,0,1,4-3.76h10.12l-1,17.57-5.35,1.34A10.07,10.07,0,0,0,226,310.56a9.92,9.92,0,0,0,9.68,7.77,10.08,10.08,0,0,0,2.42-.3l9.83-2.46a13.83,13.83,0,0,0,10.5-12.73l1.05-19.27a4,4,0,0,1,4-3.76h20.76A11.88,11.88,0,0,0,296,269.61c4.57-32.3-1.51-64-4.15-75.4A79.38,79.38,0,0,0,325.49,121.66Z" fill="none" stroke="#45413c" stroke-linecap="round" stroke-linejoin="round" stroke-width="4"></path><path d="M239.79,279.81l.16-2.95A17.87,17.87,0,0,1,257.79,260" fill="#ffffff" stroke="#45413c" stroke-linecap="round" stroke-linejoin="round" stroke-width="4"></path><path d="M291.8,194.21a77.69,77.69,0,0,1-7.45,4.61" fill="none" stroke="#45413c" stroke-linecap="round" stroke-linejoin="round" stroke-width="4"></path><path d="M231.120 49.940 A7.940 7.940 0 1 0 247.000 49.940 A7.940 7.940 0 1 0 231.120 49.940 Z" fill="#ff512e" stroke="#45413c" stroke-linecap="round" stroke-linejoin="round" stroke-width="4"></path><path d="M356.23,104.84a6,6,0,0,0-6.48-5.37l-28.59,2.65A79.44,79.44,0,0,0,167,128.43l148-13.76h0l35.89-3.34A6,6,0,0,0,356.23,104.84Z" fill="#ff866e"></path><path d="M252.68,54.29a79.82,79.82,0,0,1,24.6,1.53A79.46,79.46,0,0,0,167,128.43l13.86-1.29A79.44,79.44,0,0,1,252.68,54.29Z" fill="#ffcabf"></path><path d="M208.44,114.61l28.66-2.67a4,4,0,0,1,4.32,3.59l.56,5.93-32.54,3Z" fill="#ff512e"></path><path d="M356.23,104.84a6,6,0,0,0-6.48-5.37l-28.59,2.65a79.4,79.4,0,0,1,3.21,11.67l26.48-2.46A6,6,0,0,0,356.23,104.84Z" fill="#ff512e"></path><path d="M356.23,104.84a6,6,0,0,0-6.48-5.37l-28.59,2.65A79.44,79.44,0,0,0,167,128.43l148-13.76h0l35.89-3.34A6,6,0,0,0,356.23,104.84Z" fill="none" stroke="#45413c" stroke-linecap="round" stroke-linejoin="round" stroke-width="4"></path><path d="M232.16,112.4l4.94-.46a4,4,0,0,1,4.32,3.59l.56,5.93" fill="none" stroke="#45413c" stroke-linecap="round" stroke-linejoin="round" stroke-width="4"></path><path d="M322.87,107.45q-.75-2.65-1.67-5.23" fill="#ffffff" stroke="#45413c" stroke-linecap="round" stroke-linejoin="round" stroke-width="4"></path><path d="M208.44,114.61a11.91,11.91,0,1,1,23.72-2.21Z" fill="#e0e0e0" stroke="#45413c" stroke-linecap="round" stroke-linejoin="round" stroke-width="4"></path><path d="M216.4,157.4c.61,6.55,5.53,11.45,11,10.94s9.39-6.23,8.79-12.78Z" fill="#ffa694" stroke="#45413c" stroke-linecap="round" stroke-linejoin="round" stroke-width="4"></path><path d="M146.290 141.770 A33.760 33.760 0 1 0 213.810 141.770 A33.760 33.760 0 1 0 146.290 141.770 Z" fill="#ffffff" stroke="#45413c" stroke-linecap="round" stroke-linejoin="round" stroke-width="4"></path><path d="M165.970 148.960 A3.970 3.970 0 1 0 173.910 148.960 A3.970 3.970 0 1 0 165.970 148.960 Z" fill="#45413c"></path><path d="M239.210 133.120 A33.760 33.760 0 1 0 306.730 133.120 A33.760 33.760 0 1 0 239.210 133.120 Z" fill="#ffffff" stroke="#45413c" stroke-linecap="round" stroke-linejoin="round" stroke-width="4"></path><path d="M258.900 140.310 A3.970 3.970 0 1 0 266.840 140.310 A3.970 3.970 0 1 0 258.900 140.310 Z" fill="#45413c"></path><path d="M122.86,222a1.67,1.67,0,0,1,1.63-1.28h74.68v10.71h-76.4a1.67,1.67,0,0,1-1.63-2Z" fill="#daedf7" stroke="#45413c" stroke-linecap="round" stroke-linejoin="round" stroke-width="4"></path><path d="M184.5,222a1.67,1.67,0,0,1,1.63-1.28h23.35A1.66,1.66,0,0,1,211.1,222l1.73,7.38a1.67,1.67,0,0,1-1.63,2H182.3Z" fill="#c0dceb" stroke="#45413c" stroke-linecap="round" stroke-linejoin="round" stroke-width="4"></path><path d="M93.74,231.45H61.83a2.31,2.31,0,0,1-2.19-3l3.06-9.06a2.31,2.31,0,0,1,2.19-1.57H93.74Z" fill="#c0dceb" stroke="#45413c" stroke-linecap="round" stroke-linejoin="round" stroke-width="4"></path><path d="M152.08,209.67H137.89V113.14h14.19A10.88,10.88,0,0,1,163,124V198.8A10.87,10.87,0,0,1,152.08,209.67Z" fill="#c0dceb" stroke="#45413c" stroke-linecap="round" stroke-linejoin="round" stroke-width="4"></path><path d="M22.790 113.140 L151.590 113.140 L151.590 209.680 L22.790 209.680 Z" fill="#e8f4fa"></path><path d="M151.59,126.74V124a10.88,10.88,0,0,0-10.87-10.88h-107A10.88,10.88,0,0,0,22.79,124v2.72Z" fill="#ffffff"></path><path d="M22.790 113.140 L151.590 113.140 L151.590 209.680 L22.790 209.680 Z" fill="none" stroke="#45413c" stroke-linecap="round" stroke-linejoin="round" stroke-width="4"></path><path d="M99.21,217.77,95.9,170.11a9.25,9.25,0,0,0-9.23-8.64H80.91a9.25,9.25,0,0,0-9.23,8.61l-3.93,56.43a4.64,4.64,0,0,0,4.62,4.94h54.71a2.31,2.31,0,0,0,2.14-3.18l-2.74-9.06a2.31,2.31,0,0,0-2.14-1.44Z" fill="#daedf7" stroke="#45413c" stroke-linecap="round" stroke-linejoin="round" stroke-width="4"></path><path d="M99.21 217.77L99.49 221.99" fill="none" stroke="#45413c" stroke-linecap="round" stroke-linejoin="round" stroke-width="4"></path><path d="M110.41 217.77L113.32 231.45" fill="none" stroke="#45413c" stroke-linecap="round" stroke-linejoin="round" stroke-width="4"></path><path d="M76.630 198.110 A6.940 6.940 0 1 0 90.510 198.110 A6.940 6.940 0 1 0 76.630 198.110 Z" fill="#ffffff" stroke="#45413c" stroke-linecap="round" stroke-linejoin="round" stroke-width="4"></path><path d="M32.44 199.76L32.44 190.2" fill="none" stroke="#45413c" stroke-linecap="round" stroke-linejoin="round" stroke-width="4"></path><path d="M39.99 199.76L39.99 190.2" fill="none" stroke="#45413c" stroke-linecap="round" stroke-linejoin="round" stroke-width="4"></path><path d="M47.54 199.76L47.54 190.2" fill="none" stroke="#45413c" stroke-linecap="round" stroke-linejoin="round" stroke-width="4"></path><path d="M284.64,220.36a10,10,0,0,1-7,5.64A122.43,122.43,0,0,1,252,229.08c-12.6,0-20.87-2.81-29-5.56-9.31-3.16-18.11-6.15-35.71-4.87a9.93,9.93,0,1,1-1.44-19.8c21.61-1.58,33.26,2.38,43.54,5.87,9.51,3.23,17.35,5.9,33.41,3.76" fill="#ffffff" stroke="#45413c" stroke-linecap="round" stroke-linejoin="round" stroke-width="4"></path><path d="M255,231.45H187.82a9.34,9.34,0,0,0-9.34,9.34v86.82q7.72.39,15.61.39a295.81,295.81,0,0,0,70.29-8.3V240.79A9.34,9.34,0,0,0,255,231.45Z" fill="#bf8256"></path><path d="M12.61,240.79V253.7c31.23,41.16,93.21,70.24,165.87,73.91V240.79a9.34,9.34,0,0,1,9.34-9.34H22A9.34,9.34,0,0,0,12.61,240.79Z" fill="#f0c2a1"></path><path d="M178.48,328V240.79a9.34,9.34,0,0,1,9.34-9.34H22a9.34,9.34,0,0,0-9.34,9.34V253.7" fill="none" stroke="#45413c" stroke-linecap="round" stroke-linejoin="round" stroke-width="4"></path><path d="M264.38,319.7V240.79a9.34,9.34,0,0,0-9.34-9.34H187.82a9.34,9.34,0,0,0-9.34,9.34V328" fill="none" stroke="#45413c" stroke-linecap="round" stroke-linejoin="round" stroke-width="4"></path></g></svg>